# xmcd
#
# Track frame offsets:
#	150
#	13528
#	28501
#	45170
#	58893
#	77390
#	91385
#	105255
#	120047
#	134248
#	148803
#
# Disc length: 2189 seconds
#
# Revision: 1
# Processed by: cddbd v1.5.2PL0 Copyright (c) Steve Scherf et al.
# Submitted via: audiograbber 1.83.01
#
DISCID=81088b0b
DTITLE=Chris Young - I'm Comin' Over
DYEAR=2016
DGENRE=Country
TTITLE0=Heartbeat
TTITLE1=I'm Comin' Over
TTITLE2=Think Of You (duet with Cassadee Pope)
TTITLE3=You Do The Talkin'
TTITLE4=I Know A Guy
TTITLE5=Alone Tonight
TTITLE6=Sunshine Overtime
TTITLE7=Sober Saturday Night (Feat. Vince Gill)
TTITLE8=Underdogs
TTITLE9=Callin' My Name
TTITLE10=What If I Stay
EXTD=
EXTT0=
EXTT1=
EXTT2=
EXTT3=
EXTT4=
EXTT5=
EXTT6=
EXTT7=
EXTT8=
EXTT9=
EXTT10=
PLAYORDER=
